<svg xmlns="http://www.w3.org/2000/svg" width="18.128" height="18.104" viewBox="0 0 18.128 18.104">
  <path id="call_FILL1_wght700_GRAD200_opsz48" d="M21.437,23a13.223,13.223,0,0,1-5.924-1.463,20.156,20.156,0,0,1-5.293-3.795,19.7,19.7,0,0,1-3.806-5.305,13.278,13.278,0,0,1-1.463-5.9,1.6,1.6,0,0,1,.476-1.154A1.566,1.566,0,0,1,6.592,4.9H9.8a1.871,1.871,0,0,1,1.225.381A1.838,1.838,0,0,1,11.635,6.4l.642,2.522a2.611,2.611,0,0,1-.048,1.13,1.713,1.713,0,0,1-.523.8l-2.45,2.236a17.792,17.792,0,0,0,2.593,3.247,15.278,15.278,0,0,0,3.117,2.343l2.355-2.355a2.193,2.193,0,0,1,.9-.595,2.04,2.04,0,0,1,1.118-.024l2.236.547a2,2,0,0,1,1.118.678,1.893,1.893,0,0,1,.381,1.2v3.212a1.614,1.614,0,0,1-.476,1.19A1.585,1.585,0,0,1,21.437,23Z" transform="translate(-4.95 -4.9)" opacity="0.4"/>
</svg>
