<svg xmlns="http://www.w3.org/2000/svg" width="21.93" height="25.8" viewBox="0 0 21.93 25.8">
  <g id="Group_3159" data-name="Group 3159" transform="translate(-3 -2)">
    <path id="Path_3532" data-name="Path 3532" d="M18.48,25.22H5.58V8.45A1.294,1.294,0,0,0,4.29,7.16h0A1.294,1.294,0,0,0,3,8.45V25.22A2.588,2.588,0,0,0,5.58,27.8h12.9a1.294,1.294,0,0,0,1.29-1.29h0A1.294,1.294,0,0,0,18.48,25.22Zm6.45-5.16V4.58A2.588,2.588,0,0,0,22.35,2H10.74A2.588,2.588,0,0,0,8.16,4.58V20.06a2.588,2.588,0,0,0,2.58,2.58H22.35A2.588,2.588,0,0,0,24.93,20.06Zm-2.58,0H10.74V4.58H22.35Z" transform="translate(0 0)"/>
  </g>
</svg>
