<svg xmlns="http://www.w3.org/2000/svg" width="17.977" height="17.976" viewBox="0 0 17.977 17.976">
  <g id="Group_3653" data-name="Group 3653" transform="translate(6822.213 -511.024)">
    <path id="Path_3554" data-name="Path 3554" d="M198.177,112H183.8a1.8,1.8,0,0,0-1.8,1.8v14.381a1.8,1.8,0,0,0,1.8,1.8h14.381a1.8,1.8,0,0,0,1.8-1.8V113.8a1.8,1.8,0,0,0-1.8-1.8ZM183.8,113.2h14.381a.6.6,0,0,1,.6.6v9.776l-2.624-2.3h0a1.09,1.09,0,0,0-1.468,0l-3.931,3.445a1.091,1.091,0,0,1-1.468,0l-1.219-1.07a1.09,1.09,0,0,0-1.468,0l-3.4,2.981V113.8a.6.6,0,0,1,.6-.6Z" transform="translate(-7004.211 399.024)" fill="#fff"/>
    <path id="Path_3555" data-name="Path 3555" d="M411.794,161.039a1.609,1.609,0,1,1-1.609-1.609,1.609,1.609,0,0,1,1.609,1.609" transform="translate(-7218.667 354.131)" fill="#fff"/>
  </g>
</svg>
