<svg xmlns="http://www.w3.org/2000/svg" width="102.001" height="24" viewBox="0 0 102.001 24">
  <path id="Exclusion_1" data-name="Exclusion 1" d="M97,21H-5V-3H97V21ZM84.869,13.348h0l4.374,3.123a.54.54,0,0,0,.316.1.547.547,0,0,0,.319-.1.54.54,0,0,0,.2-.6l-1.619-5.125,4.322-3.2a.542.542,0,0,0-.318-.978l-5.375-.045-1.7-5.1a.541.541,0,0,0-.273-.314.547.547,0,0,0-.449-.015.542.542,0,0,0-.306.329l-1.7,5.1-5.374.044a.542.542,0,0,0-.318.978l4.322,3.2-1.619,5.125a.543.543,0,0,0,.832.6l4.373-3.123Zm-19,0h0l4.374,3.123a.54.54,0,0,0,.316.1.547.547,0,0,0,.319-.1.54.54,0,0,0,.2-.6l-1.619-5.125,4.322-3.2a.542.542,0,0,0-.318-.978l-5.375-.045-1.7-5.1a.541.541,0,0,0-.273-.314.547.547,0,0,0-.449-.015.542.542,0,0,0-.306.329l-1.7,5.1-5.374.044a.542.542,0,0,0-.318.978l4.322,3.2-1.619,5.125a.543.543,0,0,0,.833.6l4.373-3.123Zm-19,0h0l4.374,3.123a.54.54,0,0,0,.316.1.547.547,0,0,0,.319-.1.54.54,0,0,0,.2-.6l-1.619-5.125,4.322-3.2a.542.542,0,0,0-.318-.978l-5.375-.045-1.7-5.1a.541.541,0,0,0-.273-.314.547.547,0,0,0-.449-.015.542.542,0,0,0-.306.329l-1.7,5.1-5.374.044a.542.542,0,0,0-.318.978l4.322,3.2-1.619,5.125a.543.543,0,0,0,.833.6l4.373-3.123Zm-19,0h0l4.374,3.123a.542.542,0,0,0,.833-.6l-1.619-5.125,4.322-3.2a.542.542,0,0,0-.318-.978l-5.375-.045-1.7-5.1a.541.541,0,0,0-.273-.314.547.547,0,0,0-.449-.015.542.542,0,0,0-.306.329l-1.7,5.1-5.374.044a.542.542,0,0,0-.318.978l4.322,3.2-1.619,5.125a.543.543,0,0,0,.833.6l4.373-3.123Zm-19,0h0l4.374,3.123a.542.542,0,0,0,.832-.6l-1.619-5.125,4.322-3.2a.542.542,0,0,0-.318-.978l-5.375-.045-1.7-5.1a.541.541,0,0,0-.273-.314A.547.547,0,0,0,8.662,1.1a.542.542,0,0,0-.306.329l-1.7,5.1-5.374.044a.542.542,0,0,0-.318.978l4.322,3.2L3.663,15.866a.543.543,0,0,0,.833.6l4.373-3.123Z" transform="translate(5 3)" fill="#fff"/>
</svg>
