<svg xmlns="http://www.w3.org/2000/svg" width="18.13" height="18.13" viewBox="0 0 18.13 18.13">
  <path id="Path_3567" data-name="Path 3567" d="M98.279,14H87.832A3.832,3.832,0,0,0,84,17.832V28.3a3.832,3.832,0,0,0,3.832,3.832H98.3A3.832,3.832,0,0,0,102.13,28.3V17.832A3.861,3.861,0,0,0,98.279,14ZM98.05,24.257a.972.972,0,1,1-1.944,0V21.416l-6.558,6.539a.967.967,0,0,1-1.373,0,.99.99,0,0,1,0-1.392l6.539-6.539h-2.86a.972.972,0,1,1,0-1.944h5.2a.976.976,0,0,1,.972.972v5.2Z" transform="translate(-84 -14)" fill="#0b5aa5"/>
</svg>
