<svg xmlns="http://www.w3.org/2000/svg" width="18.129" height="14.731" viewBox="0 0 18.129 14.731">
  <path id="mail_FILL1_wght700_GRAD200_opsz48" d="M4.907,21.581a1.864,1.864,0,0,1-1.376-.591,1.892,1.892,0,0,1-.581-1.366V8.828a1.928,1.928,0,0,1,.581-1.376,1.848,1.848,0,0,1,1.376-.6H19.1a1.883,1.883,0,0,1,1.387.6,1.911,1.911,0,0,1,.591,1.376v10.8a1.875,1.875,0,0,1-.591,1.366,1.9,1.9,0,0,1-1.387.591ZM12,15.237l7.1-4.8V8.828L12,13.516l-7.1-4.688v1.613Z" transform="translate(-2.95 -6.85)" opacity="0.4"/>
</svg>
