<svg xmlns="http://www.w3.org/2000/svg" width="33" height="33" viewBox="0 0 33 33">
  <g id="Group_3654" data-name="Group 3654" transform="translate(-309 -94)">
    <circle id="Ellipse_41" data-name="Ellipse 41" cx="16.5" cy="16.5" r="16.5" transform="translate(309 94)" fill="#fff"/>
    <g id="noun-share-1058861" transform="translate(244.776 68.922)" opacity="0.9">
      <path id="Path_3550" data-name="Path 3550" d="M123.728,37.2v6.147a.641.641,0,0,1-1.283,0V37.195l-.725.724a.642.642,0,0,1-.907-.907l1.823-1.823a.631.631,0,0,1,.447-.186l0,0a.631.631,0,0,1,.447.184l1.823,1.823a.641.641,0,0,1-.907.907Zm-5.773,9.674h10.263V42.377a.641.641,0,0,1,1.283,0v5.137a.635.635,0,0,1-.187.451.643.643,0,0,1-.454.187H117.313a.639.639,0,0,1-.641-.639V42.377a.641.641,0,0,1,1.283,0Z" transform="translate(-42.363)" stroke="#000" stroke-width="0.6" fill-rule="evenodd"/>
    </g>
  </g>
</svg>
