<svg xmlns="http://www.w3.org/2000/svg" width="24" height="24.999" viewBox="0 0 24 24.999">
  <path id="Exclusion_2" data-name="Exclusion 2" d="M21,21H-3V-4H21V21ZM8.87,13.348h0l4.374,3.123a.542.542,0,0,0,.832-.6l-1.619-5.126L16.78,7.546a.542.542,0,0,0-.318-.978l-5.375-.045-1.7-5.1a.541.541,0,0,0-.273-.314A.547.547,0,0,0,8.662,1.1a.542.542,0,0,0-.306.329l-1.7,5.1-5.374.044a.542.542,0,0,0-.318.978l4.322,3.195L3.663,15.866a.543.543,0,0,0,.832.6l4.373-3.123Z" transform="translate(3 4)" fill="#fff"/>
</svg>
