<svg xmlns="http://www.w3.org/2000/svg" width="13.135" height="18.708" viewBox="0 0 13.135 18.708">
  <path id="Path_3465" data-name="Path 3465" d="M184.368,34.766a1.428,1.428,0,1,0,1.428,1.428A1.422,1.422,0,0,0,184.368,34.766Zm-2.99,3.764a.474.474,0,0,0-.234.073.191.191,0,0,0-.1.194s0,.009,0,.013v6.267a.428.428,0,0,0,.18.34.588.588,0,0,0,.38.087.671.671,0,0,0,.374-.147.356.356,0,0,0,.133-.307h0a.177.177,0,0,1,0-.06V40.171a.18.18,0,1,1,.36,0V45a.179.179,0,0,1,0,.033.7.7,0,0,1,0,.093v1.735h.007v3.684a.349.349,0,0,0,.147.267.82.82,0,0,0,.1.073h.007a1.089,1.089,0,0,0,.12.067A1.238,1.238,0,0,0,183,51a1.4,1.4,0,0,0,.153.04h.007a1.3,1.3,0,0,0,.153.02h.007a1.074,1.074,0,0,0,.314-.027.732.732,0,0,0,.274-.133.645.645,0,0,0,.114-.114.741.741,0,0,0,.087-.153.779.779,0,0,0,.033-.087,1.213,1.213,0,0,0,.047-.334V50.21h0s0-.009,0-.013l.007-4.445a.18.18,0,1,1,.361,0l-.007,4.411h0a.143.143,0,0,1,0,.02.18.18,0,0,1,.007.033v.007a.783.783,0,0,0,.234.614.684.684,0,0,0,.107.087h.007a.9.9,0,0,0,.427.12,1.062,1.062,0,0,0,.808-.32.66.66,0,0,0,.08-.107s.005,0,.007-.007a.522.522,0,0,0,.04-.114V46.859h.007V40.172a.182.182,0,1,1,.36,0v4.765a.152.152,0,0,1,0,.02.181.181,0,0,1,.007.067.423.423,0,0,0,.147.36.589.589,0,0,0,.367.133.612.612,0,0,0,.38-.107.412.412,0,0,0,.167-.334V38.931h0v-.007a.421.421,0,0,0-.12-.294.3.3,0,0,0-.214-.1h-5.88a.731.731,0,0,0-.107,0Zm.734,8.776a8.292,8.292,0,0,0-3.07,1.121,2.353,2.353,0,0,0-1.241,1.849c0,.833.687,1.634,1.876,2.229a11.859,11.859,0,0,0,9.384,0c1.188-.6,1.875-1.4,1.875-2.229a2.344,2.344,0,0,0-1.235-1.849,8.288,8.288,0,0,0-3.07-1.121V50.53h0a.178.178,0,0,1-.007.047,1.029,1.029,0,0,1-.494.634,1.462,1.462,0,0,1-.394.153,1.564,1.564,0,0,1-.42.04,1.345,1.345,0,0,1-.207-.02,1.282,1.282,0,0,1-.207-.053,1.163,1.163,0,0,1-.187-.093h-.007c-.029-.018-.053-.04-.08-.06h-.007c-.028-.021-.054-.05-.08-.073,0,0-.005,0-.007,0a1.042,1.042,0,0,1-.167-.247,1.125,1.125,0,0,1-.594.474,1.545,1.545,0,0,1-.574.08c-.577-.024-1.114-.355-1.088-.881V47.307Z" transform="translate(-177.801 -34.766)"/>
</svg>
